<?xml version="1.0" encoding="utf-8"?>
<!-- Generator: Adobe Illustrator 22.0.1, SVG Export Plug-In . SVG Version: 6.00 Build 0)  -->
<svg version="1.1" id="Ebene_1" xmlns="http://www.w3.org/2000/svg" xmlns:xlink="http://www.w3.org/1999/xlink" x="0px" y="0px"
	 viewBox="0 0 340 340" style="enable-background:new 0 0 396 336;" xml:space="preserve">
<style type="text/css">
	.st0{fill:url(#SVGID_1_);}
	.st1{fill:#6F95DB;}
	.st2{fill:#FFFFFF;fill-opacity:0.1;}
	.st3{opacity:0.2;}
	.st4{fill:#FFFFFF;}
	.st5{fill:#3E5F99;}
	.st6{opacity:0.6;fill:#3E5F99;}
</style>
    <metadata>
      <rdf:RDF
           xmlns:rdf = "http://www.w3.org/1999/02/22-rdf-syntax-ns#"
           xmlns:rdfs = "http://www.w3.org/2000/01/rdf-schema#"
           xmlns:dc = "http://purl.org/dc/elements/1.1/" >
        <rdf:Description>
          <dc:creator>
            <rdf:Bag>
              <rdf:li>Webpack SVG by http://freevector.co/author/antonioarias</rdf:li>
              <rdf:li>Recycling SVG by https://www.flaticon.com/authors/vectors-market</rdf:li>
              <rdf:li>SVG Composition by https://github.com/iantsch/cleanup-loader/</rdf:li>
            </rdf:Bag>
          </dc:creator>
        </rdf:Description>
      </rdf:RDF>
    </metadata>
<g>
	
		<radialGradient id="SVGID_1_" cx="21.5822" cy="320.4966" r="0.5" gradientTransform="matrix(255.4693 0 0 -294.9908 -5343.5576 94713.5078)" gradientUnits="userSpaceOnUse">
		<stop  offset="0" style="stop-color:#93B4E7"/>
		<stop  offset="0.5927" style="stop-color:#B9D1F8"/>
		<stop  offset="1" style="stop-color:#9CB6E0"/>
	</radialGradient>
	<path class="st0" d="M170,22.5L42.3,96.2v147.5L170,317.4l127.7-73.7V96.2L170,22.5z"/>
	<path class="st1" d="M170,97.3l-63.3,36.6V207l63.3,36.6l63.3-36.6v-73.1L170,97.3z"/>
	<g>
		<path class="st2" d="M170,22L42,96.2l128,69.7l128-69.2L170,22z"/>
	</g>
	<g transform="translate(0.000000, 153.508897)">
		<path class="st2" d="M170,22L42,89.9l128,73.8l127.5-74.2L170,22z"/>
	</g>
</g>
<g class="st3">
	<path class="st4" d="M214.3,171.4c-0.1-0.4-0.1-0.6-0.1-0.6l-0.2-0.7l-13.8-23.5l10.8-18.9l-16.5,10.1l-2.8-4.7
		c-2.3-3.7-6.4-6.1-10.8-6.1l-0.3,0l-16.3,0.4l-4.4-0.1c-0.2,0-0.3,0-0.5,0c-3.8,0-7.5,1.3-10.3,3.7c-0.3,0.3-0.5,0.4-0.5,0.4
		L148,132l-11.9,22.2l-22.8-0.5l16.7,9.8l-2.7,4.7c-2.3,3.9-2.3,8.7-0.1,12.6l8.1,14.2l1.6,3.1l0,0l0.4,0.8c1.8,3.6,4.8,6.3,8.5,7.8
		c0.3,0.1,0.5,0.2,0.5,0.2l0.6,0.2l27.3-0.1l10.5,19.1v-19.4h5.5c4.5,0,8.7-2.4,11-6.3l8.2-14.1l2.3-3.4l0,0l0.2-0.3
		C214,179.2,214.9,175.2,214.3,171.4z"/>
</g>
<g>
	<path class="st5" d="M210.1,171.6l-9.4-15.9l-16.9,9.8l10.6,18.5h6c2.4,0,4.6-0.8,6.4-2.3c0.4-0.4,0.8-0.8,1.3-1.3l0.2-0.3
		c1.6-2.5,2.3-5.4,1.8-8.3C210.1,171.7,210.1,171.6,210.1,171.6z"/>
	<path class="st6" d="M208.2,180.5l-2.3,3.5l-8.2,14.2c-1.5,2.6-4.3,4.3-7.4,4.3h-9.6v7.5l-9.2-16.7l9.2-16.7v7.5h19.8
		c0.2,0,0.4,0,0.6,0c2.2-0.1,4.2-0.9,5.9-2.2C207.3,181.4,207.7,181,208.2,180.5C208.1,180.6,208.2,180.5,208.2,180.5
		C208.2,180.5,208.2,180.5,208.2,180.5z"/>
	<path class="st5" d="M147.5,202.9l18.5-0.1l0-19.5l-21.3-0.2l-3,5.2c-1.2,2-1.6,4.4-1.3,6.7c0.1,0.5,0.3,1.1,0.4,1.8l0.1,0.3
		c1.3,2.6,3.5,4.7,6.3,5.8C147.4,202.9,147.5,202.9,147.5,202.9z"/>
	<path class="st6" d="M140.8,196.8l-1.9-3.8l-8.1-14.3c-1.5-2.7-1.5-5.9,0-8.5l4.8-8.3l-6.5-3.8l19.1,0.4l9.8,16.4l-6.5-3.8
		l-10,17.1c-0.1,0.2-0.2,0.3-0.3,0.5c-1,1.9-1.4,4.1-1,6.2C140.5,195.5,140.7,196,140.8,196.8C140.8,196.7,140.8,196.7,140.8,196.8
		C140.8,196.7,140.8,196.7,140.8,196.8z"/>
	<path class="st5" d="M151.3,134.5l-8.7,16.3l17.2,9.3l10.3-18.7l-3.1-5.1c-1.2-2-3.1-3.5-5.3-4.3c-0.5-0.1-1.1-0.3-1.8-0.5l-0.3,0
		c-2.9-0.1-5.8,0.9-8.1,2.8C151.4,134.4,151.3,134.5,151.3,134.5z"/>
	<path class="st6" d="M159.9,131.5l4.2,0.1l16.4-0.4c3-0.1,5.9,1.5,7.5,4.1l5,8.2l6.4-3.9l-9.5,16.6l-19.1,0.8l6.4-3.9L167,136.2
		c-0.1-0.2-0.2-0.3-0.3-0.5c-1.2-1.8-3-3.1-5-3.9C161.2,131.8,160.6,131.6,159.9,131.5C160,131.5,160,131.5,159.9,131.5
		C159.9,131.5,159.9,131.5,159.9,131.5z"/>
</g>
</svg>
